<?xml version="1.0" encoding="utf-8"?>
<!-- Generator: Adobe Illustrator 19.2.0, SVG Export Plug-In . SVG Version: 6.00 Build 0)  -->
<svg version="1.1" id="Layer_1" xmlns="http://www.w3.org/2000/svg" xmlns:xlink="http://www.w3.org/1999/xlink" x="0px" y="0px"
	 viewBox="0 0 422 150" style="enable-background:new 0 0 422 150;" xml:space="preserve">
<style type="text/css">
	.st0{fill:#A57DCC;fill-opacity:0.1;stroke:#C2185B;stroke-width:2;stroke-miterlimit:10;}
	.st1{fill:#252525;stroke:#C2185B;stroke-width:2;stroke-miterlimit:10;}
</style>
<path class="st0" d="M425.5,37.4l-7.1-4l-7.1,14.8l-7.1,1.1l-7.2,36l-7.1,1h-7.1l-7.1,10.2l-7.1,2.7l-7.1,3.4l-7.1,23.8l-7.1-11.4
	l-7.1-11.2l-7.1-0.5l-7.1,10.4l-7.1,0.1l-7.1-8.2l-7.1,4.5l-7.1-1.2l-7.1-7.3l-7.1-1.8l-7.1-7.4l-7.1,8.9l-7.1,16.9l-7.1-3.9
	l-7.1-11.8l-7.1-4.3l-7.1-2.8l-7.1,5.7l-7.1-3.7l-7.1-2.5l-7.1,15.5l-7.1-6.5l-7.1,5.9l-7.1-1.7l-7.1,18.3l-7.1-12.8l-7.1-1.2
	l-7.1-29.5l-7.1,3.8l-7.1-13.4l-7.1-10.9l-7.1,7.7L119,95l-7.1-18.5l-7.1,20.9l-7.1,1.4L90.5,113l-7.1,15.5l-7.1-11.2l-7.1,12.2
	l-7.1,5.3l-8.5,10.6l-5.8-2.2l-7.1,1.4l-7.1,8.8l0,0h7.1h7.1h7.1H62h7.1h7.1h7.1h7.1h7.1h7.1h7.1h7.1h7.1h7.1h7.1h7.1h7.1h7.1h7.1
	h7.1h7.1h7.1h7.1h7.1h7.1h7.1h7.1h7.1h7.1h7.1h7.1h7.1h7.1h7.1h7.1h7.1h7.1h7.1h7.1h7.1h7.1h7.1h7.1h7.1h7.1h7.1h7.1h7.1h7.1h7.1
	h7.1h7.1h7.1h7.1h7.1v-116H425.5z"/>
<circle class="st1" cx="954" cy="0" r="0"/>
</svg>
